<svg xmlns="http://www.w3.org/2000/svg" viewBox="0 0 97.01 87.76"><defs><style>.cls-1{fill:#007057}</style></defs><title>Blog</title><path class="cls-1" d="M97 7.46a3.34 3.34 0 0 0-1-2.38L91.94 1a3.36 3.36 0 0 0-4.76 0L71.24 16.92a11 11 0 0 0-1.68-.14H11.49A11.5 11.5 0 0 0 0 28.28v36a11.5 11.5 0 0 0 11.49 11.53h22.33l-.07.49C33 81.49 29 86 29 86a1 1 0 0 0 .77 1.74h21.47A1 1 0 0 0 52 86s-4.06-4.53-4.79-9.72l-.07-.49h22.42a11.52 11.52 0 0 0 11.51-11.48v-36a11.27 11.27 0 0 0-.43-3.06L96 9.84a3.34 3.34 0 0 0 1-2.38zM48.62 85l.45.67H31.9l.45-.67a20.44 20.44 0 0 0 3.55-8.83v-.38H45v.38A20.44 20.44 0 0 0 48.62 85zm30-18.23a9.44 9.44 0 0 1-9.07 6.94H11.49a9.42 9.42 0 0 1-9-6.94l-.15-.54h76.43zM79 28.28v35.88H2.08V28.28a9.42 9.42 0 0 1 9.41-9.41H69.3l-9.38 9.38h-17a1 1 0 1 0 0 2h15l-8.09 8.09h-6.91a1 1 0 0 0 0 2h6l-3.36 9.56H10.77a1 1 0 0 0 0 2h34.62a1 1 0 0 0 .44-.11 1 1 0 0 0 .72 0l11.5-4a1 1 0 0 0 .37-.23l7.17-7.17h3.48a1 1 0 1 0 0-2h-1.51L78.9 27a9 9 0 0 1 .1 1.28zM50.9 40.44a8.13 8.13 0 0 1 5.66 5.67l-7.63 2.69-.71-.71zm7.33 4.4a10.11 10.11 0 0 0-6.06-6.06L81.76 9.19a10.09 10.09 0 0 1 6.06 6.06zm36.4-36.4l-5.29 5.29a12.07 12.07 0 0 0-6.06-6.06l5.29-5.29a1.43 1.43 0 0 1 2 0l4.09 4.09a1.39 1.39 0 0 1 0 2z"/><path class="cls-1" d="M11.05 43.6h22.11a1 1 0 0 0 1-1v-16a1 1 0 0 0-1-1H11.05a1 1 0 0 0-1 1v16a1 1 0 0 0 1 1zm11.22-2h-7.9l4-4zm2.79 0L21 37.55l5.18-5.18 6 6v3.24zm7.12-14v8l-5.33-5.33a1 1 0 0 0-1.39 0l-5.87 5.87-.59-.55a1 1 0 0 0-1.39 0L12 41.18V27.6z"/></svg>