<svg xmlns="http://www.w3.org/2000/svg" viewBox="0 0 355.08 184.65"><defs><style>.cls-1{fill:#006f56}</style></defs><title>Asset 1</title><g id="Layer_2" data-name="Layer 2"><g id="Layer_1-2" data-name="Layer 1"><circle class="cls-1" cx="25.97" cy="38.08" r="18.93"/><circle class="cls-1" cx="330.77" cy="138.92" r="18.93"/><path class="cls-1" d="M187.08 1C124.75-5.16 55.5 19.56 44 24a22.81 22.81 0 0 1 4.9 14.08v.36c14-8.46 68.49-35.73 138.86-28.1 147.5 16 147.57 77.63 145.4 92.74a35.77 35.77 0 0 1 21.24 8.8c2.09-11.36 9.84-93.47-167.32-110.88zM308.39 143.91c-9 6-62.28 39.2-139.4 30.4C-.29 155 20.59 75.41 21.07 73.67A35.8 35.8 0 0 1 2.23 65c-3.54 11.72-22.81 97.83 167.44 118.32 73 7.87 134.67-22.07 145.67-27.48a22.94 22.94 0 0 1-6.95-11.93z"/><path class="cls-1" transform="rotate(-4.46 172.313 92.612)" d="M153.87 43.04h36.43v98.99h-36.43z"/><path class="cls-1" d="M249.26 36.87l-36.39 2.84-9.88.77 7.71 98.69 36.3-2.83 10-.78a49.48 49.48 0 0 0-7.7-98.66zm-1 70.36l-3.51.27-3.21-41.07 3.51-.27a20.6 20.6 0 0 1 3.21 41.07zM118.36 118.2c-14.14 1.1-26.28-6.69-27.11-17.41s9.95-20.3 24.08-21.4c8-.62 15.27 1.59 20.3 5.55a.64.64 0 0 0 1.05-.54L133.85 48c-16.92-4.21-34.33-1.78-34.33-1.78a52.81 52.81 0 0 0 8.22 105.3s17.69-.59 33.64-7.09l-2.7-34.54a.64.64 0 0 0-1.12-.37c-4.36 4.74-11.24 8.06-19.2 8.68z"/></g></g></svg>