<svg xmlns="http://www.w3.org/2000/svg" viewBox="0 0 79 86.92"><defs><style>.cls-1{fill:#007057}</style></defs><title>Construction Worker</title><path class="cls-1" d="M70.64 47.51a1 1 0 0 0-1 1v3.23H66a14.28 14.28 0 0 0-13.6-10.77h-5.18v-3.32a11.21 11.21 0 0 0 3.54-8.17V21.9a25 25 0 0 0 3.08-.84 3.91 3.91 0 0 0 2.51-3.51 3.44 3.44 0 0 0-3.26-3.65h-.33a12 12 0 0 0-8.81-10.48A3.72 3.72 0 0 0 40.25 0h-1.49a3.72 3.72 0 0 0-3.7 3.42 12 12 0 0 0-8.82 10.48h-.33a3.44 3.44 0 0 0-3.26 3.65 3.91 3.91 0 0 0 2.51 3.51 25 25 0 0 0 3.08.84v7.58a11.21 11.21 0 0 0 3.54 8.17v3.29h-5.19A14.28 14.28 0 0 0 13 51.71H9.34v-3.23a1 1 0 0 0-1-1C3.67 47.51 0 49.78 0 52.69v29.05c0 2.9 3.7 5.18 8.42 5.18H70.7c4.66 0 8.3-2.3 8.3-5.18V52.69c0-2.91-3.67-5.18-8.36-5.18zM35 5.46v7h2V3.72a1.7 1.7 0 0 1 0-.38 1.84 1.84 0 0 1 .16-.34 1.76 1.76 0 0 1 1.6-1h1.49a1.76 1.76 0 0 1 1.6 1 1.83 1.83 0 0 1 .12.34 1.69 1.69 0 0 1 0 .38v8.76h2v-7A10.17 10.17 0 0 1 50.81 14c0 .23.06.46.08.69V16.22a50.73 50.73 0 0 1-11.5 1.11A50.19 50.19 0 0 1 28 16.24v-.39-.94-.2c0-.23 0-.46.08-.69A10.17 10.17 0 0 1 35 5.46zM24.6 17.55a1.55 1.55 0 0 1 1.31-1.7h.18v.39a2 2 0 0 0 1.46 1.89 51.82 51.82 0 0 0 12 1.17 52.36 52.36 0 0 0 12-1.17 2 2 0 0 0 1.46-1.89v-.39h.18a1.55 1.55 0 0 1 1.31 1.7 2 2 0 0 1-1.31 1.7 20.73 20.73 0 0 1-2.34.64l-.29.07-.22.05H50q-.77.2-1.55.37h-.12l-1.52.3a41.32 41.32 0 0 1-7.31.66 41.33 41.33 0 0 1-7.31-.66l-1.52-.3h-.14q-.78-.17-1.56-.38l-.72-.16a20.79 20.79 0 0 1-2.34-.64 2 2 0 0 1-1.31-1.65zm5.6 11.93v-7.12a43.3 43.3 0 0 0 9.3 1 43.29 43.29 0 0 0 9.31-1v7.12a9.26 9.26 0 0 1-1.58 5.2l-.05.07q-.2.29-.43.57l-.25.29-.26.28-.35.35-.17.16-.44.38a9.27 9.27 0 0 1-11.54 0l-.44-.38-.17-.16-.35-.35-.26-.28-.25-.29q-.22-.28-.43-.57l-.05-.07a9.26 9.26 0 0 1-1.59-5.2zm9.3 11.26a11.17 11.17 0 0 0 5.77-1.61v2.47a5.58 5.58 0 0 1-5.75 5.4 5.58 5.58 0 0 1-5.76-5.38v-2.49a11.17 11.17 0 0 0 5.74 1.61zM26.59 42.9h5.32a7.79 7.79 0 0 0 15.19 0h5.32A12.29 12.29 0 0 1 64 51.71H15a12.29 12.29 0 0 1 11.59-8.81zM2 52.69c0-1.39 2.19-2.93 5.44-3.19v27.1A10.49 10.49 0 0 0 2 78.38zM70.58 85H8.42C4.61 85 2 83.27 2 81.74s2.63-3.23 6.41-3.23a1 1 0 0 0 1-1V53.66h60.26v23.88a1 1 0 0 0 1 1c3.78 0 6.41 1.7 6.41 3.23S74.4 85 70.58 85zm6.47-6.59a10.49 10.49 0 0 0-5.44-1.79V49.5c3.25.26 5.44 1.8 5.44 3.19z"/><path class="cls-1" d="M40.88 56.77h-22a1 1 0 0 0-1 1V60h2v-1.28h6.52v3.6h2v-3.6h11.51v6.76h-8.76v2h8.76v11.34h-2.28v2h3.25a1 1 0 0 0 1-1v-22a1 1 0 0 0-1-1.05z"/><path class="cls-1" d="M28.29 77.19h-2v1.62h-6.47V67.44h6.52v7.79h2V64.24h-2v1.2h-6.52v-3.51h-2v17.86a1 1 0 0 0 1 1h16.7v-2h-7.23zM62.72 73a1.25 1.25 0 1 0-.79 2.34h1a1 1 0 0 0 .59-1.75zM57 73.34h-2.4a1 1 0 0 0 0 2H57a1 1 0 0 0 0-2zM49.71 73.34a1 1 0 0 0-2 0v1a1 1 0 0 0 1 1h1a1 1 0 0 0 0-2zM48.74 70.78a1 1 0 0 0 1-1V68a1 1 0 1 0-2 0v1.8a1 1 0 0 0 1 .98zM48.74 65.46a1 1 0 0 0 .78-.38 1 1 0 0 0 .59-1.75l-.78-.59a1 1 0 0 0-1.57.78v1a1 1 0 0 0 .98.94zM59.57 70.55L58 69.34a1 1 0 0 0-1.18 1.55l1.58 1.2a1 1 0 0 0 1.18-1.55zM54.25 68.69a1 1 0 0 0 .59-1.75l-1.58-1.2a1 1 0 0 0-1.18 1.55l1.58 1.2a1 1 0 0 0 .59.2z"/></svg>