<svg xmlns="http://www.w3.org/2000/svg" viewBox="0 0 78.46 78.28"><defs><style>.cls-1{fill:#007057}</style></defs><title>Consult</title><path class="cls-1" d="M60.55 0H3.12A3.07 3.07 0 0 0 0 3v71.29a3.08 3.08 0 0 0 3.12 3h57.43a3.08 3.08 0 0 0 3.12-3v-3.48L61.83 69v5.33a1.23 1.23 0 0 1-1.28 1.18H3.12a1.23 1.23 0 0 1-1.28-1.18V3a1.23 1.23 0 0 1 1.28-1.16h57.43A1.23 1.23 0 0 1 61.83 3v51.35l1.84 1.84V3a3.08 3.08 0 0 0-3.12-3z"/><path class="cls-1" d="M28.54 27.59a.61.61 0 0 0-.08.13H6v1.68h22.67v-.1l-.13-1.71zM57.72 7.84H5.96v1.68h51.76V7.84zM57.72 14.56H5.96v1.68h51.76v-1.68zM57.72 21.28H5.96v1.68h51.76v-1.68zM71.14 78.28a3.29 3.29 0 0 1-2.34-1L31.94 40.46a1 1 0 0 1 .53-1.65A8 8 0 0 0 39 32.36v-.06a1 1 0 0 1 1.65-.52l36.84 36.85a3.31 3.31 0 0 1 0 4.68l-4 4a3.3 3.3 0 0 1-2.35.97zm-36.62-38l35.66 35.66a1.36 1.36 0 0 0 1.92 0l4-4a1.36 1.36 0 0 0 0-1.92L40.45 34.35a9.92 9.92 0 0 1-5.93 5.93z"/><path class="cls-1" d="M63.53 71.32L63 69.45a9.91 9.91 0 0 0 6.66-6.66l1.87.56a11.86 11.86 0 0 1-8 7.97zM31.71 40.09l-4-11.27A1 1 0 0 1 29 27.58l11.27 4-.65 1.84-9.35-3.29 3.29 9.35z"/><path class="cls-1" d="M27.983 29.183l1.379-1.379 2.305 2.305-1.379 1.38z"/></svg>