<svg xmlns="http://www.w3.org/2000/svg" viewBox="0 0 91.89 64.87"><defs><style>.cls-1{fill:#231f20}</style></defs><title>Email</title><path class="cls-1" d="M78 0H13.87A13.88 13.88 0 0 0 0 13.87V51a13.88 13.88 0 0 0 13.87 13.87H78A13.88 13.88 0 0 0 91.89 51V13.87A13.88 13.88 0 0 0 78 0zm0 7a6.88 6.88 0 0 1 2 .29L45.77 33.73 12.08 7.22A6.88 6.88 0 0 1 13.87 7zm6.89 44A6.89 6.89 0 0 1 78 57.89H13.87A6.89 6.89 0 0 1 7 51V13.87a6.89 6.89 0 0 1 .2-1.63l36.4 28.65a3.49 3.49 0 0 0 4.29 0l36.86-28.5a6.9 6.9 0 0 1 .16 1.48z"/></svg>