<svg xmlns="http://www.w3.org/2000/svg" viewBox="0 0 81.03 66.91"><defs><style>.cls-1{fill:#231f20}</style></defs><title>Estimate</title><path class="cls-1" d="M79.92 1.12a3.81 3.81 0 0 0-5.38 0L62.56 13a15.07 15.07 0 0 0-14-9.68H15.05A15.07 15.07 0 0 0 0 18.4v33.46a15.07 15.07 0 0 0 15.05 15.05h33.47a15.07 15.07 0 0 0 15.05-15.05V22.75L79.91 6.51a3.81 3.81 0 0 0 .01-5.39zM56 51.86a7.45 7.45 0 0 1-7.44 7.44H15.05a7.45 7.45 0 0 1-7.44-7.44V18.4a7.45 7.45 0 0 1 7.44-7.4h33.47A7.45 7.45 0 0 1 56 18.4v1.19L33.4 42 20.3 28.93a3.81 3.81 0 0 0-5.38 5.39L30.73 50.1l2.66 2.67 2.71-2.71L56 30.33z"/></svg>