<svg xmlns="http://www.w3.org/2000/svg" viewBox="0 0 77.67 75.59"><defs><style>.cls-1{fill:#007057}</style></defs><title>Asset 5</title><g id="Layer_2" data-name="Layer 2"><g id="Layer_1-2" data-name="Layer 1"><path class="cls-1" d="M77.14 27.66l-4.52-4.52a1.82 1.82 0 0 0-2.53 0l-3.53-3.53a1.82 1.82 0 0 0 0-2.53L58 8.5l-.48-.5-.25-.18C52.32 3.77 45.39 1 37.68.1h-.37A2.22 2.22 0 0 0 35.47 4l.1.06a59.62 59.62 0 0 1 9.92 7.67l.09.09c2.31 2.31 2.68 3 3.33 4.41l-3.83 3.83a1.81 1.81 0 0 0 0 2.56l.57.57-11.73 11.72a2.48 2.48 0 0 0-3.29.13L.71 65a2.42 2.42 0 0 0 0 3.43l6.48 6.48a2.43 2.43 0 0 0 3.43 0L40.54 45a2.43 2.43 0 0 0 .13-3.29L52.4 29.94l.62.62a1.81 1.81 0 0 0 2.56 0l3-3L62.15 31a1.82 1.82 0 0 0 0 2.57l4.52 4.52a1.82 1.82 0 0 0 2.58 0l7.89-7.89a1.82 1.82 0 0 0 0-2.57zM39.35 40.33l-4.09-4.09L47 24.55l4 4.09zm0 2.91a.53.53 0 0 1-.16.38L9.29 73.54a.55.55 0 0 1-.76 0L2 67.06a.54.54 0 0 1 0-.76l30-29.93a.54.54 0 0 1 .76 0l6.48 6.48a.53.53 0 0 1 .13.39zm24.19-10.92a1.82 1.82 0 0 0 0-2.57l-3.62-3.62a1.86 1.86 0 0 0-2.58 0l-3 3-7.83-7.83 4-4a1.54 1.54 0 0 0 .4-1.46v-.13l-.06-.08c-.85-1.63-1.29-2.49-3.9-5.11a61.2 61.2 0 0 0-10.25-8h-.05a.33.33 0 0 1 .28-.59l.42.06c7.74.88 14.65 3.7 19.31 7.87l8.47 8.47a1.82 1.82 0 0 0 0 2.53l3.62 3.62a1.87 1.87 0 0 0 2.53 0L75.76 29 68 36.75z"/><path class="cls-1" d="M34.07 41.22a.94.94 0 0 0-1.33 0L7.07 66.88a.94.94 0 1 0 1.33 1.33l25.67-25.66a.94.94 0 0 0 0-1.33z"/></g></g></svg>