<svg xmlns="http://www.w3.org/2000/svg" viewBox="0 0 92.82 80.84"><defs><style>.cls-1{fill:#231f20}</style></defs><title>Phone</title><path class="cls-1" d="M91 18.47a7.61 7.61 0 0 0-3.23-4.61A84.93 84.93 0 0 0 46.34 0h-.25C45.25 0 25.33.5 5 13.86a7.61 7.61 0 0 0-3.2 4.61C-1.8 33.7.94 37.68 2 39.19a7.61 7.61 0 0 0 6.27 3.3h5.18A56 56 0 0 0 9 47.57c-2.6 3.59-4.28 12.08-5 25.25a7.61 7.61 0 0 0 7.6 8h69.61a7.61 7.61 0 0 0 7.6-8c-.71-13.16-2.4-21.66-5-25.24a56 56 0 0 0-4.41-5.09h5.19a7.61 7.61 0 0 0 6.27-3.3c1.01-1.51 3.76-5.49.14-20.72zm-9.79 54.76H11.6s1-17.59 3.57-21.17c4.15-5.7 20.2-19.91 20.2-19.91v-6.23h6.31v6.28h9.47v-6.29h6.31v6.23s16 14.21 20.2 19.91c2.6 3.59 3.55 21.18 3.55 21.18zm3.36-38.35H72.21c-1.84-1.84 0-10.42 0-10.42-13.59-6.18-21.57-6.91-24.59-6.91a10.32 10.32 0 0 0-1.4.07h-.55c-2.16 0-10.68.46-25.06 6.85 0 0 1.84 8.58 0 10.42H8.25c-1.86-2.71 1-14.65 1-14.65a76.58 76.58 0 0 1 37-12.61 77.41 77.41 0 0 1 37.4 12.61s2.78 11.92.92 14.63z"/><path class="cls-1" d="M46.25 38a14.61 14.61 0 1 0 14.61 14.57A14.63 14.63 0 0 0 46.25 38zm0 21.61a7 7 0 1 1 7-7 7 7 0 0 1-7 6.96z"/></svg>