<svg xmlns="http://www.w3.org/2000/svg" viewBox="0 0 98.31 90.57"><defs><style>.cls-1{fill:#007057}</style></defs><title>Testimonials</title><path class="cls-1" d="M98 87.5a39.74 39.74 0 0 1-5.38-13.22c3.17-4.74 4-11.11 4-14.25 0-11.81-7.66-22-18.65-26.63 0-.57.06-1.14.06-1.72C78 14.21 61 0 40 0S2 14.21 2 31.69c0 4.4 1.53 11 4.86 15.5a41 41 0 0 1-6.45 14.4 2 2 0 0 0 1.54 3.15h.12c.32 0 7.78-.52 18.09-6A42.52 42.52 0 0 0 33 62.83c1.54 14.84 15.17 26.48 31.72 26.48a33.89 33.89 0 0 0 16.5-4.23c8.53 5 14.72 5.46 15 5.48h.13A2 2 0 0 0 98 87.5zm-77.82-31C9.61 62.33 2 62.79 2 62.79a42.8 42.8 0 0 0 7-16.08c-3.64-4.4-5-11.15-5-15C4 15.26 20.13 2 40 2s36 13.31 36 29.74v1a34.42 34.42 0 0 0-21.48-.37V27a1 1 0 0 0-1-1h-3.66c.31-1.91 1.59-3.11 4-3.74a1 1 0 0 0 .72-.94v-4.83a1 1 0 0 0-.3-.71 1 1 0 0 0-.72-.27c-9.49.52-14.3 5.56-14.3 15v8.83a1 1 0 0 0 1 1h1A27.9 27.9 0 0 0 32.86 60v.8a40.31 40.31 0 0 1-12.72-4.32zm23.18-18.16h-2.18v-7.85c0-8 3.74-12.21 11.42-13v3.05c-3.92 1.33-4.77 4.17-4.77 6.38a1 1 0 0 0 1 1h3.8v5a32.45 32.45 0 0 0-9.27 5.42zm37.9 44.48a31.83 31.83 0 0 1-16.52 4.54c-15.4 0-28.07-10.61-29.74-24.26 0-.27-.06-.54-.08-.81v-.32c0-.28 0-.56-.05-.85s0-.72 0-1.08a26.18 26.18 0 0 1 9.25-19.74q.58-.51 1.19-1 .61-.48 1.26-.93a30.62 30.62 0 0 1 6.06-3.29l.87-.34.42-.15.66-.23a32.63 32.63 0 0 1 21.33.34c.63.23 1.25.47 1.86.74C87.75 39.84 94.66 49.2 94.66 60c0 3.56-1.13 9.76-4.16 13.8a41.3 41.3 0 0 0 5.86 14.78S90 88.2 81.25 82.82z"/><path class="cls-1" d="M63.83 48.33H50.46a1 1 0 0 0-1 1v12.32a1 1 0 0 0 1 1h3.72c-.31 1.91-1.59 3.11-4 3.74a1 1 0 0 0-.72.94v4.83a1 1 0 0 0 1 1h.05c9.49-.52 14.3-5.56 14.3-15v-8.85a1 1 0 0 0-.98-.98zm-1 9.81c0 8-3.74 12.21-11.42 12.95V68c3.92-1.33 4.77-4.17 4.77-6.38a1 1 0 0 0-1-1h-3.8V50.28h11.48zM82.29 48.33H68.92a1 1 0 0 0-1 1v12.32a1 1 0 0 0 1 1h3.8c-.32 1.91-1.62 3.11-4 3.74a1 1 0 0 0-.73.94v4.83a1 1 0 0 0 1 1H69c9.49-.52 14.3-5.56 14.3-15v-8.85a1 1 0 0 0-1.01-.98zm-1 9.81c0 8-3.74 12.21-11.42 12.95V68c4-1.32 4.85-4.17 4.85-6.39a1 1 0 0 0-1-1h-3.83V50.28h11.43zM36.1 39.32V27a1 1 0 0 0-1-1h-3.8c.32-1.91 1.62-3.11 4-3.74a1 1 0 0 0 .73-.94v-4.83a1 1 0 0 0-.3-.71 1 1 0 0 0-.72-.27c-9.49.52-14.3 5.56-14.3 15v8.83a1 1 0 0 0 1 1h13.41a1 1 0 0 0 .98-1.02zm-2-1H22.73v-7.83c0-8 3.74-12.21 11.42-13v3.05c-4 1.33-4.85 4.17-4.85 6.39a1 1 0 0 0 1 1h3.87z"/></svg>